<mxfile host="app.diagrams.net" modified="2024-04-01T01:08:47.648Z" agent="Mozilla/5.0 (Windows NT 10.0; Win64; x64) AppleWebKit/537.36 (KHTML, like Gecko) Chrome/123.0.0.0 Safari/537.36" version="24.2.1" etag="iXsY4R9sPesaOO-p6uM3" type="github">
  <diagram name="PÃ¡gina-1" id="9bx33kZzB7fEAEyDpe8O">
    <mxGraphModel>
      <root>
        <mxCell id="0" />
        <mxCell id="1" parent="0" />
      </root>
    </mxGraphModel>
  </diagram>
</mxfile>
